<?xml version="1.0" encoding="UTF-8"?>
<svg version="1.1" xmlns="http://www.w3.org/2000/svg" width="1024" height="1024">
<path d="M0 0 C337.92 0 675.84 0 1024 0 C1024 337.92 1024 675.84 1024 1024 C686.08 1024 348.16 1024 0 1024 C0 686.08 0 348.16 0 0 Z " fill="#FAFAFA" transform="translate(0,0)"/>
<path d="M0 0 C1.64061603 2.97723675 2.47856421 5.67626263 3.12573242 9.00756836 C3.42233513 10.51174568 3.42233513 10.51174568 3.72492981 12.04631042 C4.03704659 13.67660942 4.03704659 13.67660942 4.35546875 15.33984375 C4.5779277 16.47726517 4.80038666 17.61468658 5.02958679 18.78657532 C5.75470722 22.50244531 6.4712966 26.21990192 7.1875 29.9375 C7.68532288 32.50040068 8.18353439 35.06322589 8.68212891 37.62597656 C10.13041221 45.08226191 11.56692278 52.54077913 13 60 C13.1922113 60.99904358 13.38442261 61.99808716 13.5824585 63.02740479 C17.55054545 83.65648839 21.37014582 104.30855756 25 125 C25.66080566 125.05422119 26.32161133 125.10844238 27.00244141 125.16430664 C87.60621589 130.39378401 147.09457143 153.81418314 192.72509766 194.54663086 C195.87463221 197.42471466 195.87463221 197.42471466 200 198 C201.86070752 197.0109314 201.86070752 197.0109314 203.78125 195.61328125 C204.90599731 194.83380127 204.90599731 194.83380127 206.0534668 194.03857422 C206.86082275 193.46896973 207.66817871 192.89936523 208.5 192.3125 C210.22512575 191.11308753 211.95039005 189.91387433 213.67578125 188.71484375 C215.00150146 187.78841064 215.00150146 187.78841064 216.35400391 186.84326172 C220.44613726 183.99258754 224.56753663 181.18522193 228.6875 178.375 C230.26453873 177.29588825 231.8413638 176.21646417 233.41796875 175.13671875 C236.39849235 173.09582424 239.38042576 171.05701563 242.36328125 169.01953125 C243.74245093 168.07590573 245.12136488 167.13190633 246.5 166.1875 C247.15210449 165.74083984 247.80420898 165.29417969 248.47607422 164.83398438 C253.3515686 161.47982366 258.12949777 158.01308743 262.86328125 154.4609375 C265 153 265 153 268 152 C266.27829157 155.73647362 264.03758185 159.09447817 261.75 162.5 C261.31526367 163.1494458 260.88052734 163.7988916 260.43261719 164.46801758 C253.81360212 174.30544224 246.95159766 183.97698613 240.11962891 193.66699219 C230.24573097 207.62395854 230.24573097 207.62395854 221 222 C221.63164063 222.64582031 222.26328125 223.29164063 222.9140625 223.95703125 C231.50168792 233.00249837 238.82150707 242.81363324 246 253 C246.62986816 253.88413574 246.62986816 253.88413574 247.27246094 254.78613281 C272.62000955 290.72996801 286.69091971 334.52365554 294.3125 377.4375 C294.48426758 378.40324951 294.65603516 379.36899902 294.83300781 380.36401367 C294.98737305 381.2738501 295.14173828 382.18368652 295.30078125 383.12109375 C295.43653564 383.9195874 295.57229004 384.71808105 295.7121582 385.54077148 C296.04411076 388.37686826 296.04625997 391.14712926 296 394 C296.8996196 394.16533737 296.8996196 394.16533737 297.81741333 394.33401489 C316.36593262 397.76720615 334.77730185 401.71687895 353.18505859 405.82861328 C357.08472669 406.69962781 360.98584762 407.56392686 364.88740158 408.42644882 C384.00428951 412.65614938 403.03669433 417.12261193 422 422 C419.06263822 423.60218289 416.34080165 424.50692461 413.07861328 425.22998047 C412.09007355 425.45178986 411.10153381 425.67359924 410.08303833 425.90213013 C409.00633881 426.13809906 407.92963928 426.37406799 406.8203125 426.6171875 C405.6840744 426.87063934 404.5478363 427.12409119 403.37716675 427.38522339 C399.62756965 428.2203064 395.87635019 429.04783084 392.125 429.875 C389.5246473 430.45173734 386.92437383 431.028819 384.32421875 431.60644531 C380.29630501 432.5008932 376.26823611 433.3946225 372.23956299 434.28564453 C362.98547914 436.33284731 353.73760181 438.40617522 344.4921875 440.4921875 C340.83475308 441.3147636 337.17715847 442.13662224 333.51947021 442.95806885 C331.18787699 443.48271068 328.85669345 444.0091768 326.52593994 444.53753662 C323.26850755 445.27534444 320.00948248 446.00568563 316.75 446.734375 C315.33169388 447.05847855 315.33169388 447.05847855 313.88473511 447.38912964 C307.938849 448.70873577 302.07258002 449.53320933 296 450 C295.89042969 451.18078125 295.78085937 452.3615625 295.66796875 453.578125 C294.90920425 460.36330698 293.60972779 467.05072055 292.3125 473.75 C292.11367218 474.77794678 292.11367218 474.77794678 291.91082764 475.82666016 C289.58321021 487.76216314 286.75445298 499.42799548 283 511 C282.70367676 511.92184082 282.40735352 512.84368164 282.10205078 513.79345703 C269.10712283 553.77525971 247.21718187 599.11286328 215.12109375 627.55078125 C212.78913196 629.75443978 212.78913196 629.75443978 212.81640625 632.31640625 C214.5895219 636.33663876 217.20028336 639.52320471 219.9375 642.9375 C221.12427274 644.45035244 222.3091435 645.96469867 223.4921875 647.48046875 C224.08354492 648.23634277 224.67490234 648.9922168 225.28417969 649.77099609 C228.21861574 653.58309074 230.98924275 657.50751897 233.75170898 661.44506836 C235.52195036 663.96067452 237.32089273 666.38969478 239.27734375 668.765625 C241 671 241 671 241 673 C236.89831938 672.41404563 234.04826872 670.09079409 230.8125 667.6875 C229.57083721 666.78183227 228.32862385 665.87691901 227.0859375 664.97265625 C226.42819336 664.49199707 225.77044922 664.01133789 225.09277344 663.51611328 C220.69171947 660.32776224 216.22777363 657.22707989 211.7746582 654.11206055 C210.75505005 653.39530151 210.75505005 653.39530151 209.71484375 652.6640625 C209.07015137 652.21321289 208.42545898 651.76236328 207.76123047 651.29785156 C206 650 206 650 203.31640625 647.5859375 C201.12084452 645.7645746 201.12084452 645.7645746 198.4765625 645.98828125 C195.40301252 647.24387974 193.72694794 648.83938259 191.375 651.1875 C147.95479611 692.0914387 78.23042434 723.81923501 18 723 C17.91548584 723.58338135 17.83097168 724.1667627 17.74389648 724.76782227 C11.74631665 765.76895908 3.81939445 806.51829974 -5 847 C-5.66 847 -6.32 847 -7 847 C-12.08684785 821.87191364 -17.11572555 796.73937858 -21.73876953 771.52133179 C-24.0779889 758.76966515 -26.55970975 746.06100865 -29.27441406 733.38354492 C-29.50354492 732.3082251 -29.73267578 731.23290527 -29.96875 730.125 C-30.16919922 729.19945312 -30.36964844 728.27390625 -30.57617188 727.3203125 C-31 725 -31 725 -31 722 C-31.84304688 722.05220703 -31.84304688 722.05220703 -32.703125 722.10546875 C-67.78069222 723.23526769 -106.95258608 709.40277607 -138 694 C-138.83756836 693.59201172 -139.67513672 693.18402344 -140.53808594 692.76367188 C-161.10104474 682.68605271 -182.08311759 670.02831746 -198.85253906 654.2578125 C-202.18533384 650.94722682 -202.18533384 650.94722682 -206.55078125 649.85546875 C-209.71177674 651.33261656 -212.42176409 653.21367914 -215.1875 655.3125 C-216.43559746 656.23175541 -217.68569507 657.1482997 -218.9375 658.0625 C-219.5975 658.54460938 -220.2575 659.02671875 -220.9375 659.5234375 C-224.45960586 662.0449451 -228.07324194 664.42584474 -231.6875 666.8125 C-245.58837988 676.01709636 -259.30862624 685.487322 -273 695 C-273 691.02132739 -271.08815653 689.25859851 -268.6875 686.3125 C-264.83873082 681.45689719 -261.21780058 676.50921278 -257.75 671.375 C-253.62838956 665.29723316 -249.36676984 659.34157226 -245 653.4375 C-244.41436279 652.6431958 -243.82872559 651.8488916 -243.2253418 651.03051758 C-240.39132578 647.19589072 -237.5342222 643.38248823 -234.62890625 639.6015625 C-234.11005859 638.91779541 -233.59121094 638.23402832 -233.05664062 637.52954102 C-232.08550959 636.25104384 -231.1042254 634.98017361 -230.11132812 633.71850586 C-227.65971533 630.71185477 -227.65971533 630.71185477 -227.2109375 627.03833008 C-228.1064499 624.72501541 -229.19272749 623.26249879 -230.80859375 621.3828125 C-231.38657715 620.69952881 -231.96456055 620.01624512 -232.56005859 619.31225586 C-233.17961426 618.59046143 -233.79916992 617.86866699 -234.4375 617.125 C-240.71088368 609.68089624 -246.48537304 602.01781016 -252 594 C-245.10015776 591.70005259 -235.87057521 592.83410632 -229 595 C-226.31194002 597.49027631 -225.47016537 599.45327271 -224.1953125 602.86328125 C-214.81356998 627.48269054 -184.64311567 647.00099187 -161.75488281 657.80908203 C-155.5264073 660.50161159 -149.05805217 662.5554377 -142.61791992 664.67626953 C-135.97432018 666.88674715 -129.69689665 669.3675861 -123.4375 672.5 C-96.42104521 685.90292289 -66.74291244 692.91843185 -37 697 C-37.63489331 690.07324267 -38.89941348 683.4653944 -40.4375 676.6875 C-40.87392724 674.64458023 -41.31012767 672.60161199 -41.74609375 670.55859375 C-42.4378112 667.37711816 -43.20269934 664.34003279 -44.16015625 661.22265625 C-45.02771777 658.15189197 -45.53775798 656.14972534 -45 653 C-42.58937141 649.73856132 -39.9821088 647.19046859 -36.91796875 644.55859375 C-33.32668308 641.40960833 -30.66970653 637.93134 -28 634 C-25.18605423 639.09201969 -24.42579302 644.67357012 -23.2734375 650.32421875 C-23.01299652 651.593759 -22.75255554 652.86329926 -22.48422241 654.17131042 C-19.19195944 670.46290882 -16.62886782 686.88221186 -14.02526855 703.29486084 C-13.34593286 707.56779741 -12.65891039 711.83949825 -11.97265625 716.11132812 C-10.6411814 724.40640347 -9.31779409 732.70274028 -8 741 C-7.96588204 730.30743217 -7.99221674 719.62650609 -8.3125 708.9375 C-8.3407637 707.95925262 -8.3407637 707.95925262 -8.36959839 706.96124268 C-8.67651705 696.63149717 -9.17528036 686.31506851 -9.734375 675.99609375 C-9.80130051 674.75772263 -9.86822601 673.5193515 -9.93717957 672.24345398 C-10.27506973 666.03394377 -10.62275434 659.82515867 -10.98364258 653.61694336 C-12.14812436 633.13517375 -12.33404811 612.87653052 -11.14358521 592.39657593 C-10.390499 579.17122972 -9.75160707 565.93375009 -9.5625 552.6875 C-9.52833984 551.5639209 -9.49417969 550.4403418 -9.45898438 549.28271484 C-9.38309 535.42988388 -16.01543717 524.76651579 -25.05859375 514.7109375 C-31.2009356 508.69256952 -38.83075072 504.63149796 -47.48046875 503.74609375 C-58.44008173 504.38621274 -67.18163576 512.03989228 -75 519 C-75.72316406 519.639375 -76.44632812 520.27875 -77.19140625 520.9375 C-82.03696153 525.48909791 -85.46154397 530.57282428 -89.046875 536.1484375 C-92.22150376 540.7833955 -95.57003511 545.1900117 -101 547 C-104.68248816 547.16390897 -108.35914586 547.29599187 -112.04492188 547.34179688 C-118.94949958 547.58941726 -124.36941572 549.43864162 -129.375 554.3125 C-133.06258343 560.41119567 -133.96390178 567.01419639 -133 574 C-129.52824766 585.54767408 -123.06031583 595.16648835 -112.6484375 601.41015625 C-101.82352094 607.15775126 -89.22411817 609.26738321 -77.1875 606 C-71.00970482 603.51044075 -65.57689886 599.31336487 -62.6875 593.2421875 C-62.03051586 591.35849079 -61.40812829 589.46230149 -60.82421875 587.5546875 C-59.2143385 582.56482172 -56.52934987 578.77605315 -52 576 C-48.40735548 574.80245183 -45.77282526 574.66905042 -42 575 C-39.09282927 577.21863029 -38.16018357 578.51944929 -37 582 C-35.97277 599.976525 -38.72368082 616.29573369 -51 630.25 C-64.15378655 644.41333224 -84.89333059 651.17674189 -103.77514648 652.1418457 C-134.47133242 653.14882132 -162.97312871 645.2046009 -186 624 C-186.52190918 623.52046875 -187.04381836 623.0409375 -187.58154297 622.546875 C-199.77809069 611.21256488 -208.07399116 598.78627868 -215.14746094 583.77392578 C-215.96738209 582.06786991 -216.84595788 580.39038331 -217.7265625 578.71484375 C-219 576 -219 576 -219 573 C-219.66257812 573.16113281 -220.32515625 573.32226562 -221.0078125 573.48828125 C-241.89184391 577.05983231 -263.82520591 572.09646031 -281 560 C-282.46307523 558.9954141 -283.9266574 557.99156628 -285.390625 556.98828125 C-286.94894855 555.91034438 -288.50623919 554.83091279 -290.0625 553.75 C-290.81378174 553.23042725 -291.56506348 552.71085449 -292.33911133 552.17553711 C-293.04318115 551.67932861 -293.74725098 551.18312012 -294.47265625 550.671875 C-295.10437744 550.2294043 -295.73609863 549.78693359 -296.38696289 549.33105469 C-298 548 -298 548 -300 545 C-299.45945946 540.45945946 -299.45945946 540.45945946 -298 539 C-295.76070114 538.90563471 -293.5183825 538.88257673 -291.27709961 538.88647461 C-290.5746965 538.88632858 -289.8722934 538.88618256 -289.14860535 538.8860321 C-286.81648722 538.88673128 -284.484448 538.89452383 -282.15234375 538.90234375 C-280.53951562 538.90420792 -278.92668693 538.90563182 -277.31385803 538.90663147 C-273.06084643 538.91045677 -268.80786876 538.92028715 -264.55487061 538.93133545 C-260.2182257 538.94154931 -255.88157533 538.94612904 -251.54492188 538.95117188 C-243.02993231 538.96190941 -234.51497037 538.97898597 -226 539 C-226.19916016 537.948125 -226.19916016 537.948125 -226.40234375 536.875 C-231.30046047 510.56102987 -231.21171539 483.94603893 -223.00537109 458.40722656 C-221.0261733 451.69967814 -219.66430522 444.8449617 -218.25 438 C-218.02621674 436.92338104 -218.02621674 436.92338104 -217.7979126 435.82501221 C-215.60664988 425.25505678 -213.45644571 414.6995762 -212 404 C-211.8443457 402.86256348 -211.68869141 401.72512695 -211.52832031 400.55322266 C-209.82700549 387.87954439 -208.17041867 375.20582141 -207.44140625 362.43359375 C-207.38157814 361.39498955 -207.38157814 361.39498955 -207.32054138 360.33540344 C-207.13778479 357.05355391 -206.9821822 353.77435424 -206.85913086 350.48950195 C-206.29238964 338.60567228 -203.18956191 328.23431779 -197.5 317.8125 C-197.07275635 317.01642334 -196.6455127 316.22034668 -196.20532227 315.40014648 C-185.07090993 295.07548912 -170.69465149 276.38657072 -155.09375 259.31640625 C-153.29965017 257.33151595 -151.58598419 255.30579989 -149.875 253.25 C-134.86589356 236.07678984 -117.37720148 222.78259083 -95 217.3125 C-93.8135791 217.01851318 -92.6271582 216.72452637 -91.40478516 216.42163086 C-87.94268609 215.58404133 -84.47524897 214.78107184 -81 214 C-79.68467285 213.70319336 -79.68467285 213.70319336 -78.34277344 213.40039062 C-52.89770385 207.95458237 -25.97284807 210.89796391 -0.37353516 213.640625 C14.51154679 215.2262988 27.84095433 214.74087848 42.69311523 212.5534668 C54.47724388 210.83543067 66.10396064 210.18295129 78 210 C78.91023926 209.97953613 79.82047852 209.95907227 80.75830078 209.93798828 C115.53246545 209.18107626 142.8675881 221.07590988 167.98828125 244.7109375 C175.79728859 252.23403597 182.79702293 260.10684291 189 269 C189.63679687 269.9075 190.27359375 270.815 190.9296875 271.75 C200.69840499 286.66654787 207.9759573 303.61511162 214.75 320.0625 C215.07291016 320.82763916 215.39582031 321.59277832 215.72851562 322.38110352 C218.43255497 329.18541982 220.34811693 336.23557608 217.6640625 343.31640625 C217.00953308 344.74357941 216.32863949 346.15888913 215.625 347.5625 C215.25922852 348.33279541 214.89345703 349.10309082 214.51660156 349.89672852 C213.37192777 352.27919633 212.19114879 354.64047584 211 357 C210.64583008 357.71639648 210.29166016 358.43279297 209.92675781 359.17089844 C196.21945075 386.77785082 177.55999633 411.33481925 158 435 C153.6667695 433.30716548 150.73123292 430.10242772 147.4375 426.9375 C143.14102124 422.8690983 138.81642917 418.94399009 134.1875 415.25 C129.09014207 411.17362622 124.51055504 406.71102415 120 402 C120.41121094 402.54785156 120.82242188 403.09570312 121.24609375 403.66015625 C122.46909639 405.29173438 123.6903129 406.92465224 124.91015625 408.55859375 C128.93121687 413.937036 132.97406701 419.29755214 137.0625 424.625 C137.4754834 425.16560059 137.8884668 425.70620117 138.31396484 426.26318359 C141.63613112 430.58945207 145.12299541 434.76104132 148.69921875 438.87890625 C150 441 150 441 149.89794922 442.79321289 C148.60274045 445.97629936 146.34489772 448.0632732 143.93359375 450.4296875 C143.42127701 450.94250275 142.90896027 451.45531799 142.38111877 451.9836731 C141.29437091 453.06808241 140.20393311 454.1488046 139.11010742 455.22607422 C137.45909102 456.85371468 135.82157102 458.49402502 134.18554688 460.13671875 C128.75721923 465.54924566 123.31084615 470.60918098 117 475 C108.14112464 463.46662257 99.33410562 451.92017511 91 440 C92.67409288 446.14492778 94.73679412 452.10281314 96.98828125 458.0546875 C97.25655731 458.76860657 97.52483337 459.48252563 97.80123901 460.21807861 C98.92181087 463.19823567 100.04369977 466.17757237 101.1887207 469.1484375 C102.03169805 471.34136421 102.85524111 473.54078449 103.67578125 475.7421875 C103.93917801 476.41200653 104.20257477 477.08182556 104.47395325 477.77194214 C106.18095713 482.41910271 106.18095713 482.41910271 105.27270508 485.3347168 C103.54845195 487.5908324 101.608095 489.180034 99.375 490.9375 C98.385 491.72382812 97.395 492.51015625 96.375 493.3203125 C95.83230469 493.74860352 95.28960938 494.17689453 94.73046875 494.61816406 C92.90566517 496.07532945 91.10752164 497.56101305 89.3125 499.0546875 C80.47338822 506.38709462 71.39285263 513.22972271 61.90087891 519.69580078 C60.16117125 520.88941988 58.44432415 522.10956138 56.73046875 523.33984375 C55.31701172 524.31630859 55.31701172 524.31630859 53.875 525.3125 C53.08867188 525.86550781 52.30234375 526.41851563 51.4921875 526.98828125 C47.83638108 528.47237821 45.74242208 528.18981176 42 527 C40.10525316 524.60985245 38.96446991 522.76597809 37.6875 520.0625 C37.31850586 519.32177246 36.94951172 518.58104492 36.56933594 517.81787109 C25.19454607 494.27348386 16.78801886 469.88433263 16.75 443.625 C16.74766357 442.88902588 16.74532715 442.15305176 16.74291992 441.39477539 C16.73169569 431.98172987 17.12710316 422.82999789 18.5 413.5 C22.19755053 388.20686038 22.25413238 358.79161768 7 337 C7.13929932 337.64396729 7.27859863 338.28793457 7.42211914 338.95141602 C8.90280122 346.32068207 9.42119896 353.42850539 9.4375 360.9375 C9.44064209 362.16662109 9.44378418 363.39574219 9.44702148 364.66210938 C9.28819159 377.50258846 7.49559964 390.0508604 5.52577209 402.72166443 C-0.10611584 438.99135171 2.09362807 473.71691925 18 507 C18.55300781 507.74636719 19.10601563 508.49273438 19.67578125 509.26171875 C23.44449544 517.0548416 20.34487431 527.91311388 19.13671875 536.09765625 C18.94143127 537.45826977 18.74685172 538.81898507 18.55293274 540.17979431 C18.04218207 543.75320836 17.52362426 547.32544068 17.00280762 550.8973999 C15.29952809 562.59318671 13.62641892 574.29327424 12 586 C11.83682281 587.17277496 11.67364563 588.34554993 11.50552368 589.55386353 C9.60278271 603.46613862 8.58242262 617.02488584 8.8125 631.0625 C8.82763808 632.73110713 8.8413097 634.39972822 8.85351562 636.06835938 C8.88565405 640.045937 8.93688009 644.02279854 9 648 C11.29306174 644.08978321 13.58593964 640.17945869 15.87866211 636.26904297 C16.65530681 634.94447055 17.43199794 633.61992535 18.20874023 632.29541016 C18.96341067 631.00851901 19.71791741 629.72153187 20.47225952 628.43444824 C21.221509 627.15696336 21.97168997 625.88002434 22.72280884 624.6036377 C24.52400641 621.53916837 26.30751944 618.46726393 28.05029297 615.36914062 C28.98252686 613.72461914 28.98252686 613.72461914 29.93359375 612.046875 C30.47943115 611.07073242 31.02526855 610.09458984 31.58764648 609.08886719 C32.28676147 608.05487793 32.28676147 608.05487793 33 607 C33.66 607 34.32 607 35 607 C29.367021 645.7132389 29.367021 645.7132389 26.61923218 663.96121216 C26.32397539 665.92372537 26.03072155 667.88653961 25.73754883 669.84936523 C24.31348752 679.26203299 22.68773905 688.63179411 21 698 C93.57193419 686.60487764 163.08587376 656.97936914 209 597 C209.98825473 595.76195912 210.97794972 594.52506713 211.96875 593.2890625 C243.2549507 553.84822839 260.54244618 507.97393494 270 459 C270.33191839 457.33305097 270.66475118 455.66628242 271 454 C270.01668701 454.30252686 269.03337402 454.60505371 268.02026367 454.91674805 C263.94350172 456.07799049 259.8678721 456.73922152 255.67578125 457.33203125 C254.87262482 457.44888779 254.06946838 457.56574432 253.24197388 457.68614197 C250.59965591 458.06775129 247.95622892 458.44079926 245.3125 458.8125 C244.40082062 458.94217163 243.48914124 459.07184326 242.54983521 459.20544434 C223.50620098 461.90669249 204.41366017 464.12265294 185.29249573 466.19450378 C181.25696698 466.63321816 177.22478334 467.0884714 173.19580078 467.58398438 C172.43034439 467.67754211 171.664888 467.77109985 170.87623596 467.86749268 C169.45661588 468.04246117 168.03740692 468.22081879 166.61875916 468.40350342 C162.38856622 468.92404196 158.259981 469.075733 154 469 C156.85463401 465.59029827 159.75636915 462.2445528 162.7890625 458.9921875 C163.2953418 458.44908936 163.80162109 457.90599121 164.32324219 457.34643555 C165.32335617 456.2772451 166.32639731 455.21078151 167.33300781 454.14770508 C167.81866211 453.62845459 168.30431641 453.1092041 168.8046875 452.57421875 C169.53575966 451.80192932 169.53575966 451.80192932 170.28160095 451.01403809 C172.08665657 448.99174691 172.08665657 448.99174691 173.61421204 446.47416687 C178.31204981 439.44189227 178.31204981 439.44189227 182.7833252 438.27134705 C186.14369746 438.19719367 189.38987016 438.40188152 192.73828125 438.6953125 C195.35029982 438.80738692 197.95584293 438.90304629 200.56884766 438.96582031 C201.59211859 438.9931125 201.59211859 438.9931125 202.63606167 439.02095604 C210.71246348 439.15498188 218.57649087 438.0254409 226.54296875 436.8046875 C227.29339195 436.69114489 228.04381516 436.57760227 228.81697845 436.46061897 C233.47989409 435.75068549 238.13730295 435.00894309 242.79376984 434.25802994 C246.85849744 433.6076173 250.92713403 432.98269103 254.99560547 432.35620117 C260.63074501 431.4868878 266.26489284 430.61172539 271.89768982 429.72735882 C284.12421194 427.80927481 296.3694233 426.03466108 308.625 424.3125 C310.35834965 424.06712463 312.09166813 423.82152903 313.82495117 423.57568359 C317.54960016 423.047829 321.27463002 422.52274587 325 422 C319.70861687 421.4348124 314.41690688 420.87275857 309.125 420.3125 C307.88382919 420.18103073 307.88382919 420.18103073 306.61758423 420.04690552 C292.56511877 418.56107405 278.50598928 417.14948605 264.4437561 415.75949097 C247.6996021 414.10376545 230.97231707 412.41509135 214.28076172 410.28320312 C210.52467114 409.81680781 206.762705 409.4092368 203 409 C203.38929688 408.3915625 203.77859375 407.783125 204.1796875 407.15625 C209.50927139 398.8057499 214.75823519 390.40580796 220 382 C230.3376503 382.53626752 240.36550864 383.86634575 250.5625 385.5625 C252.69909652 385.91525482 254.83594559 386.26610868 256.97361755 386.61228943 C258.8888114 386.92274898 260.80296392 387.23961286 262.71704102 387.55688477 C265.53740826 387.93756198 268.16151589 388.09104382 271 388 C261.81393137 335.45568742 243.18927378 285.80388889 208 245 C207.37738281 244.26652344 206.75476563 243.53304687 206.11328125 242.77734375 C193.70715027 228.56757094 180.30447155 215.38381757 164.95068359 204.39941406 C163.09220307 203.06614618 161.25694778 201.70637865 159.42578125 200.3359375 C121.80839702 172.42712618 76.66461679 157.98332461 31 150 C31.21205078 151.05388916 31.42410156 152.10777832 31.64257812 153.19360352 C32.43205982 157.12651696 33.21268213 161.06114651 33.99072266 164.99633789 C34.32784827 166.69505666 34.66733299 168.39330911 35.00927734 170.09106445 C35.50207581 172.53997111 35.98619624 174.99046293 36.46875 177.44140625 C36.69842468 178.56839684 36.69842468 178.56839684 36.93273926 179.71815491 C37.81138246 184.23357658 38.14848666 188.39956507 38 193 C29.97649696 194.18396883 22.13544686 195.28545428 14 195 C14.350625 194.21625 14.70125 193.4325 15.0625 192.625 C17.19005191 184.39846595 14.41453071 175.22027607 12.85546875 167.01953125 C12.53888054 165.32469856 12.53888054 165.32469856 12.21589661 163.59562683 C11.54369834 160.00050056 10.86592017 156.40645686 10.1875 152.8125 C9.30390303 148.11106679 8.42276323 143.40917743 7.54296875 138.70703125 C7.32857147 137.56267609 7.11417419 136.41832092 6.89328003 135.23928833 C4.82927028 124.1767025 2.89228566 113.09311799 1 102 C0.92397552 102.73037979 0.84795105 103.46075958 0.7696228 104.21327209 C-0.71855689 118.45943605 -2.36531476 132.68390015 -4.3125 146.875 C-4.46591858 147.99420334 -4.46591858 147.99420334 -4.62243652 149.13601685 C-6.03767066 159.2608813 -7.90040733 169.01456086 -11.29614258 178.69873047 C-13.0708523 183.94614307 -13.04026842 186.80658947 -11 192 C-33.18503937 192.40748031 -33.18503937 192.40748031 -38 190 C-35.33333333 176.66666667 -32.66666667 163.33333333 -30 150 C-76.44801598 156.85535192 -122.57978816 171.1138587 -161 199 C-161.6501709 199.46905762 -162.3003418 199.93811523 -162.97021484 200.42138672 C-167.71379589 203.86249681 -172.38242096 207.39172123 -177 211 C-177.54833496 211.42829102 -178.09666992 211.85658203 -178.66162109 212.29785156 C-186.17518294 218.24228798 -193.01510771 224.82023767 -199.8125 231.5625 C-200.60116455 232.34181885 -201.3898291 233.1211377 -202.20239258 233.92407227 C-207.5630118 239.31406165 -212.36899084 244.97566426 -217 251 C-217.58064209 251.74693115 -218.16128418 252.4938623 -218.75952148 253.26342773 C-227.00213369 263.95286169 -234.29419457 274.91562398 -240.76806641 286.75927734 C-241.91811495 288.85106204 -243.10029587 290.9206028 -244.29296875 292.98828125 C-259.81362126 320.40116015 -269.14375813 352.38360495 -274.34375 383.3359375 C-275 387 -275 387 -276 389 C-275.175 388.88930176 -274.35 388.77860352 -273.5 388.66455078 C-243.22116231 384.60512514 -243.22116231 384.60512514 -230 383 C-230.30681865 386.27139242 -230.62143282 389.54198921 -230.9375 392.8125 C-231.06801758 394.2056543 -231.06801758 394.2056543 -231.20117188 395.62695312 C-231.28818359 396.51962891 -231.37519531 397.41230469 -231.46484375 398.33203125 C-231.543396 399.15421143 -231.62194824 399.9763916 -231.70288086 400.82348633 C-232 403 -232 403 -233 406 C-243.44729275 407.86862147 -253.91040279 409.40279277 -264.4375 410.75 C-277.56550069 412.44509664 -290.62516304 414.48583926 -303.6875 416.625 C-304.61746796 416.77706909 -305.54743591 416.92913818 -306.50558472 417.08581543 C-316.01805597 418.64470238 -325.52678861 420.21497416 -335 422 C-321.85080632 424.54861005 -308.65528998 426.7766544 -295.4375 428.9375 C-293.8321489 429.20071045 -293.8321489 429.20071045 -292.19436646 429.46923828 C-274.50443291 432.36140647 -256.80567914 434.93167415 -239 437 C-240.99629841 448.57929954 -240.99629841 448.57929954 -242.625 453.6875 C-242.88539063 454.51636719 -243.14578125 455.34523438 -243.4140625 456.19921875 C-243.60742188 456.79347656 -243.80078125 457.38773438 -244 458 C-254.3906455 457.3742559 -264.6740221 456.28762194 -275 455 C-273.54810013 475.47475118 -267.91547442 495.56477532 -261.84765625 515.10546875 C-261 518 -261 518 -261 520 C-269.25 520 -277.5 520 -286 520 C-291.99054884 504.02520309 -295.43460891 487.57927823 -298.375 470.8125 C-298.50814606 470.05640442 -298.64129211 469.30030884 -298.7784729 468.52130127 C-301 455.81783341 -301 455.81783341 -301 451 C-302.5159375 451.0928125 -302.5159375 451.0928125 -304.0625 451.1875 C-315.40595855 451.18175042 -327.31787103 447.2802042 -338.234375 444.5234375 C-339.55397895 444.19292627 -340.87365772 443.86271368 -342.19340515 443.53277588 C-345.66780882 442.6631224 -349.14105924 441.78895526 -352.61396408 440.91333771 C-354.76190534 440.37199954 -356.91009796 439.83167062 -359.05838013 439.29168701 C-366.14218263 437.51111089 -373.22515954 435.72730617 -380.30712891 433.93945312 C-385.95398545 432.51398723 -391.60310101 431.09780905 -397.25405884 429.68869019 C-400.58113171 428.8578167 -403.90654249 428.0204749 -407.23132324 427.18048096 C-408.69410508 426.81217527 -410.15756299 426.44654366 -411.6217041 426.0836792 C-413.58173613 425.59724164 -415.53902865 425.09980266 -417.49609375 424.6015625 C-418.54982178 424.33682129 -419.6035498 424.07208008 -420.68920898 423.79931641 C-423 423 -423 423 -424 421 C-355.77927035 403.97624271 -355.77927035 403.97624271 -331 398.5625 C-330.19716583 398.38590851 -329.39433167 398.20931702 -328.56716919 398.02737427 C-319.4224747 396.02443892 -310.27719704 394.28973207 -301 393 C-300.9575415 392.43982178 -300.91508301 391.87964355 -300.87133789 391.30249023 C-294.45175869 317.39198247 -255.49737438 244.94172746 -200.01953125 196.328125 C-197.39250344 194.15019574 -194.71775248 192.06354796 -192 190 C-190.8135063 189.07329524 -189.62733044 188.14618345 -188.44140625 187.21875 C-141.80818026 151.12054627 -85.53020502 129.88882038 -27 124 C-26.83515358 123.0124472 -26.83515358 123.0124472 -26.66697693 122.00494385 C-23.27308186 101.88477014 -19.0636618 82.00312049 -14.5894165 62.09985352 C-13.88562625 58.96120823 -13.18859218 55.82107868 -12.49154091 52.68093109 C-8.57667643 35.05484404 -4.51915425 17.48299997 0 0 Z " fill="#010101" transform="translate(513,89)"/>
<path d="M0 0 C4.2698102 2.0495089 8.92698884 4.59485128 11 9 C12.59930503 22.06099106 4.97517408 35.47887494 -2.625 45.5 C-23.61193702 72.18384665 -52.25878578 85.06473591 -85.47167969 89.31640625 C-99.65337695 90.99045045 -113.7335705 91.25694595 -128 91 C-128 90.67 -128 90.34 -128 90 C-127.05382812 89.8040625 -126.10765625 89.608125 -125.1328125 89.40625 C-85.538866 80.68654739 -48.19242127 52.17288759 -25.40380859 19.21972656 C-10.82444921 -1.73191187 -10.82444921 -1.73191187 0 0 Z " fill="#F9F9F9" transform="translate(412,554)"/>
<path d="M0 0 C0.69488525 0.00176239 1.38977051 0.00352478 2.10571289 0.00534058 C13.74057998 0.0708342 24.33104601 1.31617451 35.25 5.5 C35.95495605 5.76232422 36.65991211 6.02464844 37.38623047 6.29492188 C51.40270301 11.62661542 62.87824197 19.8295286 74.25 29.5 C73.59 29.83 72.93 30.16 72.25 30.5 C70.2615151 29.71859233 68.3090289 28.84535592 66.375 27.9375 C58.00814602 24.17485826 49.36888128 21.56905565 40.53613281 19.13427734 C38.60834823 18.59942212 36.68967031 18.03190109 34.7734375 17.45703125 C6.02749115 9.86039779 -25.55744909 18.32530811 -50.8515625 32.62890625 C-63.50886082 40.79985759 -70.38139245 51.46996335 -75.48828125 65.27734375 C-76.75 68.5 -76.75 68.5 -78.75 71.5 C-81.79533958 56.88962083 -84.11581815 44.01264985 -76.46484375 30.17578125 C-75.01597437 28.1215347 -73.47970574 26.3234144 -71.75 24.5 C-71.14800781 23.84644531 -70.54601562 23.19289063 -69.92578125 22.51953125 C-52.51832827 5.3773347 -23.45228004 -0.16060788 0 0 Z " fill="#F8F8F8" transform="translate(588.75,319.5)"/>
<path d="M0 0 C3.45262396 1.15087465 3.99094513 1.97204092 6.08203125 4.83984375 C6.67709473 5.64639404 7.2721582 6.45294434 7.88525391 7.28393555 C8.52124512 8.15961182 9.15723633 9.03528809 9.8125 9.9375 C11.16918308 11.77706749 12.52728626 13.61558838 13.88671875 15.453125 C14.91804932 16.85014648 14.91804932 16.85014648 15.97021484 18.27539062 C18.96291576 22.29253546 22.03659649 26.24372555 25.125 30.1875 C31.27243724 38.05366829 37.35066038 45.97018936 43.40429688 53.90869141 C45.50767347 56.66535051 47.61510919 59.41889207 49.72265625 62.17236328 C51.88097571 64.99289439 54.03709181 67.81510713 56.19335938 70.63720703 C57.48289648 72.32371245 58.77336379 74.0095068 60.06445312 75.69482422 C62.23214726 78.52443575 64.39745931 81.35585791 66.5625 84.1875 C67.24159424 85.07276367 67.92068848 85.95802734 68.62036133 86.87011719 C71.89809388 91.16147547 75.07840823 95.45777972 78 100 C74.54894544 98.49508808 72.13275903 96.48416021 69.375 93.9375 C68.49585938 93.13183594 67.61671875 92.32617188 66.7109375 91.49609375 C65.81632813 90.67238281 64.92171875 89.84867188 64 89 C62.33538494 87.49772356 60.6687591 85.99767181 59 84.5 C56.47499507 82.2282871 53.95086696 79.95564586 51.4296875 77.6796875 C47.68435744 74.30087292 43.93481793 70.93104035 40.125 67.625 C36.21005417 64.21520847 32.38822604 60.70660037 28.56738281 57.19238281 C24.54820736 53.49696724 20.50097591 49.83420915 16.4375 46.1875 C13.91239133 43.92137684 11.39383372 41.64809385 8.875 39.375 C6.00091715 36.78609747 3.11180399 34.21944454 0.1875 31.6875 C-3.57086705 28.40859541 -7.2602959 25.0568126 -10.9375 21.6875 C-11.51798096 21.15922607 -12.09846191 20.63095215 -12.6965332 20.08666992 C-16.88339089 16.23321823 -16.88339089 16.23321823 -18 14 C-15.75043199 12.22861556 -13.50036258 10.45787453 -11.25 8.6875 C-10.29867187 7.93823242 -10.29867187 7.93823242 -9.328125 7.17382812 C-8.09839227 6.20669457 -6.86605045 5.24286739 -5.63085938 4.28271484 C-4.3097069 3.24359282 -3.01725242 2.16805334 -1.734375 1.08203125 C-1.16203125 0.72496094 -0.5896875 0.36789062 0 0 Z " fill="#030303" transform="translate(620,599)"/>
<path d="M0 0 C7.05975685 3.35804846 13.6241413 7.43638816 18.80859375 13.3359375 C18.47859375 13.9959375 18.14859375 14.6559375 17.80859375 15.3359375 C17.0815625 15.1915625 16.35453125 15.0471875 15.60546875 14.8984375 C1.82657415 12.35464157 -10.04917627 12.4383143 -22.69140625 19.2109375 C-25.6206909 21.70082946 -27.84220441 24.29579395 -30.19140625 27.3359375 C-32.52004959 25.00729416 -32.50985662 24.50271679 -32.56640625 21.3359375 C-32.3588242 13.26618532 -29.03099718 6.67634464 -23.75390625 0.7109375 C-16.89503561 -5.32486867 -7.76012144 -3.10404857 0 0 Z " fill="#F8F8F8" transform="translate(417.19140625,421.6640625)"/>
<path d="M0 0 C-0.78752557 4.92203483 -1.79960939 7.25182072 -5.8125 10.3125 C-10.12696921 13.21467893 -13.11126712 15.0686812 -18.4375 14.875 C-22.50884969 13.87501938 -24.88498353 12.81834824 -28 10 C-29.1875 6.5 -29.1875 6.5 -29 3 C-20.74902347 -5.97900387 -10.30469225 -3.18233143 0 0 Z " fill="#F6F6F6" transform="translate(424,456)"/>
<path d="M0 0 C0.99 0.33 1.98 0.66 3 1 C3.62808237 19.33800081 4.1766477 37.64826641 4 56 C1.8089159 52.35441397 1.27899244 48.55674123 0.67578125 44.41796875 C0.56525925 43.68556473 0.45473724 42.95316071 0.34086609 42.19856262 C0.10972614 40.65169347 -0.1178329 39.10428555 -0.34204102 37.55639648 C-0.68506721 35.20418224 -1.04591751 32.85517446 -1.40820312 30.50585938 C-1.63130025 28.99755694 -1.85333972 27.48909761 -2.07421875 25.98046875 C-2.23660286 24.93792183 -2.23660286 24.93792183 -2.40226746 23.87431335 C-3.0476115 19.27979519 -2.83826831 15.50977347 -2 11 C-1.67 11 -1.34 11 -1 11 C-0.67 7.37 -0.34 3.74 0 0 Z " fill="#F2F2F2" transform="translate(502,778)"/>
<path d="M0 0 C4.25602695 0.66411477 8.51000466 1.33978685 12.76245117 2.02636719 C14.2101822 2.25842016 15.65842992 2.48727265 17.10717773 2.71289062 C19.18616688 3.03722147 21.26304315 3.37291188 23.33984375 3.7109375 C25.21724243 4.00943604 25.21724243 4.00943604 27.13256836 4.31396484 C28.0788208 4.54035645 29.02507324 4.76674805 30 5 C30.33 5.66 30.66 6.32 31 7 C26.78028765 9.53182741 23.66437404 8.89047114 19.11328125 7.84765625 C12.68129191 6.09641198 6.33855493 4.06042356 0 2 C0 1.34 0 0.68 0 0 Z " fill="#F2F2F2" transform="translate(306,582)"/>
<path d="M0 0 C12.50209796 -0.21003783 24.6755128 -0.39227481 37 2 C37 2.66 37 3.32 37 4 C24.38737805 4.48167015 12.43126684 3.04528428 0 1 C0 0.67 0 0.34 0 0 Z " fill="#E9E9E9" transform="translate(306,553)"/>
<path d="M0 0 C0.93134766 0.04833984 1.86269531 0.09667969 2.82226562 0.14648438 C3.78197266 0.20255859 4.74167969 0.25863281 5.73046875 0.31640625 C6.70951172 0.36861328 7.68855469 0.42082031 8.69726562 0.47460938 C11.10452965 0.60377964 13.51132513 0.73872268 15.91796875 0.87890625 C15.91796875 1.20890625 15.91796875 1.53890625 15.91796875 1.87890625 C12.94084685 2.41496991 9.96232702 2.93295834 6.98046875 3.44140625 C6.14966797 3.59287109 5.31886719 3.74433594 4.46289062 3.90039062 C-1.34300215 4.87180459 -6.25910884 4.76615275 -12.08203125 3.87890625 C-10.08203125 0.87890625 -10.08203125 0.87890625 -7.7746582 0.18383789 C-5.11444806 -0.11742265 -2.67126184 -0.14749299 0 0 Z " fill="#F5F5F5" transform="translate(827.08203125,509.12109375)"/>
<path d="M0 0 C2.32024234 2.32024234 2.38753273 3.18772315 2.8515625 6.3515625 C2.98046875 7.20234375 3.109375 8.053125 3.2421875 8.9296875 C3.43167969 10.26386719 3.43167969 10.26386719 3.625 11.625 C3.7590625 12.5221875 3.893125 13.419375 4.03125 14.34375 C4.3615559 16.56151817 4.6841425 18.78013575 5 21 C4.34 20.67 3.68 20.34 3 20 C1.35 21.65 -0.3 23.3 -2 25 C-1.34 16.75 -0.68 8.5 0 0 Z " fill="#E4E4E4" transform="translate(513,189)"/>
<path d="M0 0 C2.64328317 2.49303339 4.67017257 4.75339133 6.3125 8 C6.65925781 8.66 7.00601563 9.32 7.36328125 10 C8.14143532 12.44426308 8.02463637 13.65797401 7 16 C6.01 16.33 5.02 16.66 4 17 C1.94862685 13.51783717 1.43181408 10.22724343 0.875 6.25 C0.70742188 5.07953125 0.53984375 3.9090625 0.3671875 2.703125 C0.24601563 1.81109375 0.12484375 0.9190625 0 0 Z " fill="#F0F1F1" transform="translate(519,424)"/>
<path d="M0 0 C0.33 0.66 0.66 1.32 1 2 C2.32 2.66 3.64 3.32 5 4 C-2.59 4 -10.18 4 -18 4 C-18 3.67 -18 3.34 -18 3 C-15.37700199 2.30391966 -12.7520793 1.61784618 -10.125 0.9375 C-9.00544922 0.63875977 -9.00544922 0.63875977 -7.86328125 0.33398438 C-2.2265625 -1.11328125 -2.2265625 -1.11328125 0 0 Z " fill="#E9E9E9" transform="translate(302,641)"/>
<path d="M0 0 C2.5419589 -0.05434116 5.08273682 -0.0938339 7.625 -0.125 C8.33785156 -0.14175781 9.05070312 -0.15851562 9.78515625 -0.17578125 C14.2612164 -0.21684602 17.77949278 0.30913433 22 2 C22 2.33 22 2.66 22 3 C19.2705414 2.85856168 16.54151877 2.71200471 13.8125 2.5625 C13.04357422 2.52318359 12.27464844 2.48386719 11.48242188 2.44335938 C7.56748925 2.22492966 3.82879312 1.91307892 0 1 C0 0.67 0 0.34 0 0 Z " fill="#E3E3E3" transform="translate(331,519)"/>
<path d="M0 0 C0.69738281 0.00451172 1.39476562 0.00902344 2.11328125 0.01367188 C3.82555803 0.0253998 5.53779033 0.04333347 7.25 0.0625 C7.25 0.3925 7.25 0.7225 7.25 1.0625 C1.18184478 2.29149346 -4.54895188 3.33810214 -10.75 3.0625 C-11.08 2.4025 -11.41 1.7425 -11.75 1.0625 C-7.88276369 -0.20332219 -4.01848738 -0.0493765 0 0 Z " fill="#EFEEEE" transform="translate(835.75,509.9375)"/>
<path d="M0 0 C4.08963819 2.28538605 7.46362104 4.95706926 11 8 C10.01 8.495 10.01 8.495 9 9 C6.3984375 8.00390625 6.3984375 8.00390625 3.375 6.5625 C2.37210938 6.08941406 1.36921875 5.61632812 0.3359375 5.12890625 C-0.43492187 4.75636719 -1.20578125 4.38382812 -2 4 C-2 3.34 -2 2.68 -2 2 C-1.34 2 -0.68 2 0 2 C0 1.34 0 0.68 0 0 Z " fill="#EAEAEA" transform="translate(652,341)"/>
<path d="M0 0 C3.39859703 1.46966358 5.64963709 3.38037514 8.25 6 C8.95640625 6.70125 9.6628125 7.4025 10.390625 8.125 C12 10 12 10 12 12 C9.1512609 11.64154938 8.11952408 11.12645301 6.11328125 9.00390625 C5.51902344 8.19824219 4.92476562 7.39257812 4.3125 6.5625 C3.71050781 5.75941406 3.10851562 4.95632813 2.48828125 4.12890625 C1 2 1 2 0 0 Z " fill="#E4E4E4" transform="translate(631,490)"/>
<path d="M0 0 C-0.33 0.99 -0.66 1.98 -1 3 C-4.96 2.67 -8.92 2.34 -13 2 C-8.38425583 -0.30787208 -4.99387758 -1.66462586 0 0 Z " fill="#E6E6E6" transform="translate(187,510)"/>
<path d="M0 0 C4.29 0.66 8.58 1.32 13 2 C12.67 2.99 12.34 3.98 12 5 C6.06 3.515 6.06 3.515 0 2 C0 1.34 0 0.68 0 0 Z " fill="#DBDBDB" transform="translate(306,582)"/>
<path d="M0 0 C0 2.31 0 4.62 0 7 C-0.33 7 -0.66 7 -1 7 C-1.33 9.31 -1.66 11.62 -2 14 C-2.33 14 -2.66 14 -3 14 C-3 9.71 -3 5.42 -3 1 C-1 0 -1 0 0 0 Z " fill="#F4F3F3" transform="translate(503,672)"/>
<path d="M0 0 C0.66 0 1.32 0 2 0 C3.4783226 2.95664519 3.06032783 5.74229737 3 9 C2.01 9 1.02 9 0 9 C0 6.03 0 3.06 0 0 Z " fill="#E8E8E8" transform="translate(420,561)"/>
<path d="M0 0 C4.92307692 4.18461538 4.92307692 4.18461538 5.3125 8.3125 C5.209375 9.199375 5.10625 10.08625 5 11 C4.34 11 3.68 11 3 11 C2.49384702 9.73160474 1.99530901 8.46016898 1.5 7.1875 C1.2215625 6.47980469 0.943125 5.77210938 0.65625 5.04296875 C0 3 0 3 0 0 Z " fill="#ECECEB" transform="translate(603,528)"/>
<path d="M0 0 C0.99 0 1.98 0 3 0 C2.25 6.625 2.25 6.625 0 10 C-0.74926071 6.33694766 -1.2380014 3.57644848 0 0 Z " fill="#F0F1F0" transform="translate(510,381)"/>
<path d="M0 0 C2.31 0 4.62 0 7 0 C6.67 3.3 6.34 6.6 6 10 C4 6 4 6 4 2 C2.68 1.34 1.36 0.68 0 0 Z " fill="#D4D5D5" transform="translate(476,239)"/>
<path d="M0 0 C2.31 0.33 4.62 0.66 7 1 C5.1875 3 5.1875 3 3 5 C2.01 5 1.02 5 0 5 C0 3.35 0 1.7 0 0 Z " fill="#F2F2F2" transform="translate(237,543)"/>
<path d="M0 0 C0.33 1.32 0.66 2.64 1 4 C2.65 4 4.3 4 6 4 C4 6 4 6 1.375 6.125 C0.59125 6.08375 -0.1925 6.0425 -1 6 C-1.042721 4.33388095 -1.04063832 2.66617115 -1 1 C-0.67 0.67 -0.34 0.34 0 0 Z " fill="#E2E3E3" transform="translate(535,781)"/>
</svg>
